grf
version=1
nRows=14
nColumns=37
inDegrees=no
endheader
time	ground_force_1_vx	ground_force_1_vy	ground_force_1_vz	ground_force_1_px	ground_force_1_py	ground_force_1_pz	ground_moment_1_mx	ground_moment_1_my	ground_moment_1_mz	ground_force_2_vx	ground_force_2_vy	ground_force_2_vz	ground_force_2_px	ground_force_2_py	ground_force_2_pz	ground_moment_2_mx	ground_moment_2_my	ground_moment_2_mz	ground_force_3_vx	ground_force_3_vy	ground_force_3_vz	ground_force_3_px	ground_force_3_py	ground_force_3_pz	ground_moment_3_mx	ground_moment_3_my	ground_moment_3_mz	ground_force_4_vx	ground_force_4_vy	ground_force_4_vz	ground_force_4_px	ground_force_4_py	ground_force_4_pz	ground_moment_4_mx	ground_moment_4_my	ground_moment_4_mz
      0.00000000	      0.00000000	     -0.00000000	      0.00000000	      0.00000000	      0.00000000	      0.00000000	      0.00000000	      0.00000000	      0.00000000	      9.31149673	     15.41955948	   -337.36181641	   -322.60349217	  -1032.59808486	      0.00000000	      0.00000000	      0.00000000	    261.74883582	     -7.07114072	    -26.73585830	   -379.39724731	   -257.60834478	   -775.20541818	      0.00000000	      0.00000000	      0.00000000	  -1856.57629384	      0.00000000	     -0.00000000	      0.00000000	      0.00000000	      0.00000000	      0.00000000	      0.00000000	      0.00000000	      0.00000000
      0.01000000	      0.00000000	     -0.00000000	      0.00000000	      0.00000000	      0.00000000	      0.00000000	      0.00000000	      0.00000000	      0.00000000	      8.93541813	     14.59076405	   -332.25698853	   -322.49816591	  -1032.39712660	      0.00000000	      0.00000000	      0.00000000	    161.73543828	     -6.60530474	    -27.50856914	   -385.70983887	   -258.61457026	   -772.75822986	      0.00000000	     -0.00000000	     -0.00000000	  -1967.06903254	      0.00000000	     -0.00000000	      0.00000000	      0.00000000	      0.00000000	      0.00000000	      0.00000000	      0.00000000	      0.00000000
      0.02000000	      0.00000000	     -0.00000000	      0.00000000	      0.00000000	      0.00000000	      0.00000000	      0.00000000	      0.00000000	      0.00000000	      8.51607513	     13.89729214	   -325.32962036	   -323.00112651	  -1031.62564551	      0.00000000	      0.00000000	      0.00000000	    169.46473467	     -6.70843090	    -28.84060229	   -389.33227539	   -259.06849294	   -772.98933640	      0.00000000	     -0.00000000	     -0.00000000	  -1931.42212363	      0.00000000	     -0.00000000	      0.00000000	      0.00000000	      0.00000000	      0.00000000	      0.00000000	      0.00000000	      0.00000000
      0.03000000	      0.00000000	     -0.00000000	      0.00000000	      0.00000000	      0.00000000	      0.00000000	      0.00000000	      0.00000000	      0.00000000	      8.67377186	     12.89621544	   -319.60040283	   -322.98757241	  -1031.21786239	      0.00000000	      0.00000000	      0.00000000	    401.71027542	     -6.83778264	    -30.16536462	   -394.27542114	   -259.79138373	   -773.75930753	      0.00000000	     -0.00000000	     -0.00000000	  -1777.02859164	      0.00000000	     -0.00000000	      0.00000000	      0.00000000	      0.00000000	      0.00000000	      0.00000000	      0.00000000	      0.00000000
      0.04000000	      0.00000000	     -0.00000000	      0.00000000	      0.00000000	      0.00000000	      0.00000000	      0.00000000	      0.00000000	      0.00000000	      7.80253029	     12.33440208	   -313.51428223	   -323.26594035	  -1029.94985845	      0.00000000	      0.00000000	      0.00000000	    242.49273909	     -6.48278988	    -31.41553250	   -402.46514893	   -259.66449962	   -773.00982353	      0.00000000	      0.00000000	     -0.00000000	  -1874.60251702	      0.00000000	     -0.00000000	      0.00000000	      0.00000000	      0.00000000	      0.00000000	      0.00000000	      0.00000000	      0.00000000
      0.05000000	      0.00000000	     -0.00000000	      0.00000000	      0.00000000	      0.00000000	      0.00000000	      0.00000000	      0.00000000	      0.00000000	      7.87048006	     11.80645561	   -308.29974365	   -324.01370768	  -1030.94996499	      0.00000000	      0.00000000	      0.00000000	    236.80403650	     -5.93685198	    -32.69926019	   -410.44107056	   -259.92369132	   -772.41287558	      0.00000000	      0.00000000	     -0.00000000	  -1830.83138810	      0.00000000	     -0.00000000	      0.00000000	      0.00000000	      0.00000000	      0.00000000	      0.00000000	      0.00000000	      0.00000000
      0.06000000	      0.00000000	     -0.00000000	      0.00000000	      0.00000000	      0.00000000	      0.00000000	      0.00000000	      0.00000000	      0.00000000	      8.00937271	     10.89346504	   -299.93597412	   -324.61719878	  -1029.87042299	      0.00000000	      0.00000000	      0.00000000	    230.98259646	     -5.73181928	    -34.13302562	   -418.79428101	   -260.97941790	   -771.59390669	      0.00000000	      0.00000000	     -0.00000000	  -1700.21758764	      0.00000000	     -0.00000000	      0.00000000	      0.00000000	      0.00000000	      0.00000000	      0.00000000	      0.00000000	      0.00000000
      0.07000000	      0.00000000	     -0.00000000	      0.00000000	      0.00000000	      0.00000000	      0.00000000	      0.00000000	      0.00000000	      0.00000000	      8.57058239	      9.66746426	   -291.39868164	   -325.14108862	  -1029.70653477	      0.00000000	      0.00000000	      0.00000000	    332.02371602	     -5.27504614	    -35.77028610	   -427.01245117	   -261.25779025	   -771.99167540	      0.00000000	      0.00000000	     -0.00000000	  -1793.39887552	      0.00000000	     -0.00000000	      0.00000000	      0.00000000	      0.00000000	      0.00000000	      0.00000000	      0.00000000	      0.00000000
      0.08000000	      0.00000000	     -0.00000000	      0.00000000	      0.00000000	      0.00000000	      0.00000000	      0.00000000	      0.00000000	      0.00000000	      8.68238735	      9.06860828	   -283.62823486	   -325.52501084	  -1030.94274801	      0.00000000	      0.00000000	      0.00000000	    247.04976370	     -5.41774030	    -37.62503767	   -436.30261230	   -260.93821410	   -771.25377413	      0.00000000	      0.00000000	     -0.00000000	  -1713.70431633	      0.00000000	     -0.00000000	      0.00000000	      0.00000000	      0.00000000	      0.00000000	      0.00000000	      0.00000000	      0.00000000
      0.09000000	      0.00000000	     -0.00000000	      0.00000000	      0.00000000	      0.00000000	      0.00000000	      0.00000000	      0.00000000	      0.00000000	      8.06439495	      8.54432201	   -272.93557739	   -326.47353775	  -1028.50568572	      0.00000000	      0.00000000	      0.00000000	    254.55764653	     -5.24016868	    -39.45733978	   -444.98147583	   -261.78038477	   -769.10805522	      0.00000000	      0.00000000	     -0.00000000	  -1799.12718065	      0.00000000	     -0.00000000	      0.00000000	      0.00000000	      0.00000000	      0.00000000	      0.00000000	      0.00000000	      0.00000000
      0.10000000	      0.00000000	     -0.00000000	      0.00000000	      0.00000000	      0.00000000	      0.00000000	      0.00000000	      0.00000000	      0.00000000	      6.58962440	      8.09295273	   -264.76666260	   -327.30041492	  -1027.66131435	      0.00000000	      0.00000000	      0.00000000	    108.84338523	     -5.76010258	    -41.71213863	   -450.86929321	   -261.23853447	   -770.19479637	      0.00000000	      0.00000000	     -0.00000000	  -1564.69503880	      0.00000000	     -0.00000000	      0.00000000	      0.00000000	      0.00000000	      0.00000000	      0.00000000	      0.00000000	      0.00000000
      0.11000000	      0.00000000	     -0.00000000	      0.00000000	      0.00000000	      0.00000000	      0.00000000	      0.00000000	      0.00000000	      0.00000000	      6.06631470	      7.23125124	   -259.11538696	   -326.62214922	  -1028.25219696	      0.00000000	      0.00000000	      0.00000000	    289.03009684	     -6.12104795	    -43.36595100	   -460.57803345	   -261.50377303	   -767.45235130	      0.00000000	      0.00000000	     -0.00000000	  -1578.17807199	      0.00000000	     -0.00000000	      0.00000000	      0.00000000	      0.00000000	      0.00000000	      0.00000000	      0.00000000	      0.00000000
      0.12000000	      0.00000000	     -0.00000000	      0.00000000	      0.00000000	      0.00000000	      0.00000000	      0.00000000	      0.00000000	      0.00000000	      5.32227230	      6.59564972	   -254.66529846	   -326.96586868	  -1027.48937572	      0.00000000	      0.00000000	      0.00000000	    228.82628535	     -6.15666450	    -45.13818306	   -466.67553711	   -260.76963785	   -767.56030650	      0.00000000	      0.00000000	     -0.00000000	  -1633.36755541	      0.00000000	     -0.00000000	      0.00000000	      0.00000000	      0.00000000	      0.00000000	      0.00000000	      0.00000000	      0.00000000
      0.13000000	      0.00000000	     -0.00000000	      0.00000000	      0.00000000	      0.00000000	      0.00000000	      0.00000000	      0.00000000	      0.00000000	      5.37491894	      5.77120781	   -252.03811646	   -326.06096272	  -1027.95430647	      0.00000000	      0.00000000	      0.00000000	    309.20248142	     -6.47019127	    -46.64519826	   -470.14389038	   -260.07023930	   -767.69190443	      0.00000000	      0.00000000	     -0.00000000	  -1422.13241718	      0.00000000	     -0.00000000	      0.00000000	      0.00000000	      0.00000000	      0.00000000	      0.00000000	      0.00000000	      0.00000000
